<svg width="81" height="121" viewBox="0 0 81 121" fill="none" xmlns="http://www.w3.org/2000/svg">
<path d="M40.9194 60.5764C40.9194 55.2721 43.0266 50.185 46.7773 46.4343C50.528 42.6836 55.6151 40.5764 60.9194 40.5764C66.2238 40.5764 71.3108 42.6836 75.0616 46.4343C78.8123 50.185 80.9194 55.2721 80.9194 60.5764C80.9194 65.8807 78.8123 70.9678 75.0616 74.7186C71.3108 78.4693 66.2238 80.5764 60.9194 80.5764C55.6151 80.5764 50.528 78.4693 46.7773 74.7186C43.0266 70.9678 40.9194 65.8807 40.9194 60.5764V60.5764Z" fill="#1ABCFE"/>
<path d="M0.919434 100.576C0.919434 95.2721 3.02657 90.185 6.7773 86.4343C10.528 82.6836 15.6151 80.5764 20.9194 80.5764H40.9194V100.576C40.9194 105.881 38.8123 110.968 35.0616 114.719C31.3108 118.469 26.2238 120.576 20.9194 120.576C15.6151 120.576 10.528 118.469 6.7773 114.719C3.02657 110.968 0.919434 105.881 0.919434 100.576H0.919434Z" fill="#0ACF83"/>
<path d="M40.9194 0.576416V40.5764H60.9194C66.2238 40.5764 71.3108 38.4693 75.0616 34.7186C78.8123 30.9678 80.9194 25.8807 80.9194 20.5764C80.9194 15.2721 78.8123 10.185 75.0616 6.43428C71.3108 2.68355 66.2238 0.576416 60.9194 0.576416L40.9194 0.576416Z" fill="#FF7262"/>
<path d="M0.919434 20.5764C0.919434 25.8807 3.02657 30.9678 6.7773 34.7186C10.528 38.4693 15.6151 40.5764 20.9194 40.5764H40.9194V0.576416H20.9194C15.6151 0.576416 10.528 2.68355 6.7773 6.43428C3.02657 10.185 0.919434 15.2721 0.919434 20.5764H0.919434Z" fill="#F24E1E"/>
<path d="M0.919434 60.5764C0.919434 65.8807 3.02657 70.9678 6.7773 74.7186C10.528 78.4693 15.6151 80.5764 20.9194 80.5764H40.9194V40.5764H20.9194C15.6151 40.5764 10.528 42.6836 6.7773 46.4343C3.02657 50.185 0.919434 55.2721 0.919434 60.5764H0.919434Z" fill="#A259FF"/>
</svg>
