<svg width="116" height="29" viewBox="0 0 116 29" fill="none" xmlns="http://www.w3.org/2000/svg">
<path d="M22.4971 4.17253C22.4971 6.21363 20.842 7.86762 18.7991 7.86762C16.7591 7.86762 15.1034 6.21363 15.1034 4.17253C15.1034 2.13078 16.7591 0.475586 18.7991 0.475586C20.842 0.475586 22.4971 2.13078 22.4971 4.17253Z" fill="#2D2732"/>
<path d="M14.6353 27.7446C14.6546 27.5091 14.4121 27.4365 13.7694 27.3779C8.83219 26.9291 5.41242 25.5428 5.41242 24.1632C5.41242 22.9592 8.10278 21.9098 12.0709 21.3668C12.1776 21.3504 12.3756 21.3575 12.3938 21.2332C12.4096 21.1091 12.0756 20.8278 11.8776 20.7481C11.6784 20.669 11.3609 20.6139 11.15 20.6356C5.01526 21.269 0.841493 22.6522 0.846195 24.2482C0.852038 25.9672 5.82497 27.4114 12.74 27.917C13.2749 27.9572 14.6066 28.0927 14.6353 27.7446Z" fill="#2D2732"/>
<path d="M26.9475 20.9919C26.937 20.9895 26.883 20.9882 26.8309 21.0094C26.7823 21.0317 26.5251 21.3374 26.6153 21.3575C26.7243 21.3791 26.8004 21.3949 26.828 21.4007C29.6537 21.9808 31.3105 22.5736 31.3105 23.559C31.3105 24.6195 29.2406 25.5998 26.0312 26.1803C25.9989 26.1848 25.9269 26.1967 25.9193 26.158C25.9146 26.1171 25.982 26.104 26.0095 26.0937C27.4754 25.5798 28.3548 24.9482 28.3548 24.2388C28.3548 23.2211 26.9932 22.4671 23.7298 21.8331C22.3402 21.5653 20.6657 20.8454 20.5849 18.6553C20.5849 17.7812 20.6622 17.0828 21.0928 16.3598C21.5246 15.6369 22.2956 14.3321 22.2956 12.8973C22.2956 10.5643 20.3856 9.10194 18.5237 9.12603C16.6618 9.14826 14.9018 10.5643 14.9018 12.8973C14.9018 14.3643 16.087 15.9292 16.3301 16.4137C16.5926 16.9299 16.838 17.5984 16.838 18.7063C16.838 20.4885 14.494 21.6022 13.3948 21.8853C11.376 22.405 9.04294 22.9288 9.04358 24.2387C9.04358 25.1022 9.75717 25.722 11.8576 26.2377C12.495 26.3801 13.5947 26.5927 14.4061 26.669C15.3388 26.7568 16.5874 26.8552 18.2495 26.706C18.9707 26.641 19.3533 26.6402 19.3791 26.8957C19.4066 27.1787 18.925 27.2913 18.7381 27.3299C17.9179 27.4928 16.9389 27.5567 16.9429 27.754C16.9482 28.0218 17.554 28.0352 18.3737 28.0365C25.5753 28.0611 36.1883 26.3955 36.1801 24.2283C36.1756 22.712 32.6053 21.6251 26.9475 20.9919Z" fill="#2D2732"/>
<path d="M43.9735 14.7348C43.9735 13.911 43.9588 13.3451 43.9143 12.6982C44.0761 12.7129 44.2746 12.7346 44.5172 12.7346C44.7597 12.7346 44.9583 12.7129 45.12 12.6982C45.0761 13.3451 45.0615 13.911 45.0615 14.7348V15.7342C45.0615 16.278 45.0685 16.8369 45.0762 17.2189C45.6274 17.2189 46.1933 17.1896 46.7595 17.1233C46.7447 17.2264 46.7301 17.2997 46.7301 17.4544C46.7301 17.6084 46.7449 17.6816 46.7595 17.7701C46.4946 17.7625 46.1495 17.7332 45.4728 17.7332C44.2747 17.7332 44.076 17.7555 43.9144 17.7701C43.9589 17.1233 43.9736 16.5574 43.9736 15.7342L43.9735 14.7348Z" fill="#2D2732"/>
<path d="M47.4209 14.6316C47.8175 14.3006 48.3325 14.1172 48.7953 14.1172C49.5746 14.1172 50.1405 14.4477 50.1405 15.3147C50.1405 15.9398 50.1182 16.4548 50.1182 16.9833C50.1182 17.4468 50.2507 17.4907 50.5524 17.4907V17.6675C50.273 17.814 50.1037 17.8655 49.8757 17.8655C49.516 17.8655 49.2952 17.6599 49.1773 17.3289C48.9495 17.6382 48.6706 17.8655 48.2218 17.8655C47.4795 17.8655 47.1708 17.3734 47.1708 16.9023C47.1708 16.2631 47.5972 15.9913 48.2587 15.8295C49.0819 15.6309 49.1558 15.5724 49.1558 15.3075C49.1558 14.9548 48.891 14.6678 48.4498 14.6678C48.1118 14.6678 47.7151 14.8663 47.5681 15.072H47.5164L47.4209 14.6316ZM49.1703 15.859C48.7514 16.094 48.2001 16.0577 48.2001 16.8C48.2001 17.1603 48.3618 17.3583 48.619 17.3583C48.9424 17.3583 49.1626 17.1087 49.1626 16.6306C49.1626 16.2047 49.1703 16.0284 49.1703 15.859Z" fill="#2D2732"/>
<path d="M51.1177 14.7489C51.1177 13.7862 51.096 13.0364 51.0592 12.2056C51.1838 12.2279 51.3972 12.2425 51.6104 12.2425C51.8236 12.2425 52.0369 12.2279 52.1616 12.2056C52.1247 13.0364 52.1031 13.7863 52.1031 14.7489H52.1178C52.2865 14.3522 52.669 14.1173 53.095 14.1173C53.9335 14.1173 54.5141 14.9035 54.5141 15.8737C54.5141 17.3366 53.617 17.8657 52.8601 17.8657C52.3972 17.8657 52.0734 17.6453 51.8676 17.3513C51.662 17.469 51.4487 17.6383 51.2354 17.8H51.0591C51.096 16.94 51.1177 16.1901 51.1177 15.2269V14.7489H51.1177ZM52.7352 17.5353C53.1541 17.5353 53.426 17.0425 53.426 15.8514C53.426 14.999 53.1981 14.5731 52.7938 14.5731C52.3749 14.5731 52.1031 14.9474 52.1031 16.0132C52.1031 16.8732 52.2132 17.5353 52.7352 17.5353Z" fill="#2D2732"/>
<path d="M56.7994 14.1172C57.9313 14.1172 58.6004 14.8156 58.6004 15.9182C58.6004 17.1157 57.8581 17.8656 56.7994 17.8656C55.9247 17.8656 54.9984 17.3805 54.9984 16.0798C54.9983 14.764 55.8731 14.1172 56.7994 14.1172ZM56.814 14.4476C56.3658 14.4476 56.0864 14.9772 56.0864 16.0869C56.0864 16.9101 56.2627 17.5352 56.8069 17.5352C57.2622 17.5352 57.5123 16.9469 57.5123 15.8074C57.5124 14.962 57.2992 14.4476 56.814 14.4476Z" fill="#2D2732"/>
<path d="M60.2767 15.1095L60.2913 15.1236C60.5484 14.4475 60.9088 14.1388 61.4008 14.1388C61.4454 14.1388 61.4817 14.1463 61.5185 14.1463C61.4893 14.2928 61.4746 14.4475 61.4746 14.6753C61.4746 14.8224 61.4746 14.9912 61.4817 15.1605L61.4155 15.2196C61.32 15.1605 61.1952 15.1165 61.0411 15.1165C60.6 15.1165 60.3274 15.4546 60.3274 15.8442V16.1384C60.3274 16.7336 60.3427 17.2556 60.3866 17.77C60.2619 17.7553 60.0631 17.733 59.8353 17.733C59.6075 17.733 59.4164 17.7553 59.2841 17.77C59.328 17.2555 59.3426 16.7335 59.3426 16.1384V15.8442C59.3426 15.249 59.328 14.7269 59.2841 14.212C59.4528 14.2272 59.6222 14.2494 59.7914 14.2494C59.9602 14.2494 60.1295 14.2271 60.2982 14.212L60.2767 15.1095Z" fill="#2D2732"/>
<path d="M61.9084 14.6316C62.305 14.3006 62.82 14.1172 63.2828 14.1172C64.0621 14.1172 64.628 14.4477 64.628 15.3147C64.628 15.9398 64.6057 16.4548 64.6057 16.9833C64.6057 17.4468 64.738 17.4907 65.0399 17.4907V17.6675C64.7603 17.814 64.5911 17.8655 64.3632 17.8655C64.0034 17.8655 63.7827 17.6599 63.6648 17.3289C63.437 17.6382 63.1581 17.8655 62.7092 17.8655C61.967 17.8655 61.6582 17.3734 61.6582 16.9023C61.6582 16.2631 62.0847 15.9913 62.7462 15.8295C63.5694 15.6309 63.6433 15.5724 63.6433 15.3075C63.6433 14.9548 63.3784 14.6678 62.9373 14.6678C62.5993 14.6678 62.2026 14.8663 62.0556 15.072H62.0039L61.9084 14.6316ZM63.6578 15.859C63.2389 16.094 62.6876 16.0577 62.6876 16.8C62.6876 17.1603 62.8494 17.3583 63.1066 17.3583C63.4299 17.3583 63.6502 17.1087 63.6502 16.6306C63.6501 16.2047 63.6578 16.0284 63.6578 15.859Z" fill="#2D2732"/>
<path d="M67.48 14.2494C67.4653 14.3227 67.4576 14.3813 67.4576 14.4474C67.4576 14.506 67.4653 14.5728 67.48 14.6314L66.8333 14.6162C66.804 15.0579 66.7816 15.8587 66.7816 16.2555C66.7816 17.2772 66.8549 17.4465 67.1929 17.4465C67.3768 17.4465 67.443 17.4249 67.5315 17.3734V17.6745C67.3399 17.7923 67.0095 17.8655 66.73 17.8655C66.1201 17.8655 65.7967 17.4689 65.7967 16.7266C65.7967 16.1607 65.8477 15.2414 65.8477 14.6239L65.3333 14.6315C65.3479 14.5729 65.3556 14.5061 65.3556 14.4475C65.3556 14.3813 65.3481 14.3227 65.3333 14.2495L65.8477 14.2712C65.8477 13.9624 65.8406 13.7421 65.8184 13.3672C66.1564 13.2277 66.4951 13.073 66.8255 12.9114L66.8994 12.963C66.8624 13.2788 66.833 13.823 66.833 14.2636L67.48 14.2494Z" fill="#2D2732"/>
<path d="M69.6483 14.1172C70.7803 14.1172 71.4492 14.8156 71.4492 15.9181C71.4492 17.1157 70.7069 17.8655 69.6483 17.8655C68.7737 17.8655 67.8474 17.3805 67.8474 16.0798C67.8475 14.764 68.722 14.1172 69.6483 14.1172ZM69.6631 14.4476C69.2148 14.4476 68.9354 14.9772 68.9354 16.0869C68.9354 16.91 69.1117 17.5351 69.6559 17.5351C70.1112 17.5351 70.3612 16.9469 70.3612 15.8073C70.3614 14.962 70.1481 14.4476 69.6631 14.4476ZM69.0532 13.6244C70.1559 12.2939 70.229 12.2424 70.45 12.2424C70.6849 12.2424 70.7951 12.4112 70.7951 12.5728C70.7951 12.7721 70.7289 12.8599 69.4577 13.6245L69.0532 13.6244Z" fill="#2D2732"/>
<path d="M73.1249 15.1095L73.1395 15.1236C73.3966 14.4475 73.7571 14.1388 74.249 14.1388C74.2936 14.1388 74.33 14.1463 74.3669 14.1463C74.3375 14.2928 74.3229 14.4475 74.3229 14.6753C74.3229 14.8224 74.3229 14.9912 74.33 15.1605L74.2638 15.2196C74.1682 15.1605 74.0435 15.1165 73.8894 15.1165C73.4483 15.1165 73.1758 15.4546 73.1758 15.8442V16.1384C73.1758 16.7336 73.1909 17.2556 73.2349 17.77C73.1101 17.7553 72.9115 17.733 72.6837 17.733C72.4557 17.733 72.2646 17.7553 72.1323 17.77C72.1763 17.2555 72.1909 16.7335 72.1909 16.1384V15.8442C72.1909 15.249 72.1763 14.7269 72.1323 14.212C72.301 14.2272 72.4703 14.2494 72.6397 14.2494C72.8084 14.2494 72.9777 14.2271 73.1464 14.212L73.1249 15.1095Z" fill="#2D2732"/>
<path d="M75.572 12.2424C75.8954 12.2424 76.1526 12.4996 76.1526 12.823C76.1526 13.1463 75.8954 13.4036 75.572 13.4036C75.2486 13.4036 74.9915 13.1463 74.9915 12.823C74.9913 12.4996 75.2486 12.2424 75.572 12.2424ZM75.0792 15.8444C75.0792 15.2492 75.0646 14.7271 75.0207 14.2121C75.1531 14.2274 75.3441 14.2496 75.572 14.2496C75.8 14.2496 75.9985 14.2273 76.1232 14.2121C76.0794 14.7272 76.0647 15.2492 76.0647 15.8444V16.1385C76.0647 16.7338 76.0794 17.2558 76.1232 17.7701C75.9985 17.7555 75.8 17.7332 75.572 17.7332C75.3441 17.7332 75.1531 17.7555 75.0207 17.7701C75.0646 17.2557 75.0792 16.7337 75.0792 16.1385V15.8444Z" fill="#2D2732"/>
<path d="M78.6373 14.1172C79.7693 14.1172 80.4382 14.8156 80.4382 15.9182C80.4382 17.1157 79.6959 17.8656 78.6373 17.8656C77.7627 17.8656 76.8364 17.3805 76.8364 16.0798C76.8364 14.764 77.7111 14.1172 78.6373 14.1172ZM78.6519 14.4476C78.2038 14.4476 77.9244 14.9772 77.9244 16.0869C77.9244 16.9101 78.1007 17.5352 78.645 17.5352C79.1002 17.5352 79.3504 16.9469 79.3504 15.8074C79.3504 14.962 79.137 14.4476 78.6519 14.4476Z" fill="#2D2732"/>
<path d="M46.958 23.9773C46.958 24.94 46.9797 25.6899 47.0165 26.5201C46.8918 26.4985 46.6785 26.4838 46.4653 26.4838C46.2667 26.4838 46.0687 26.4985 45.9725 26.5201C45.9948 26.4546 46.0318 25.9842 46.0318 25.918L46.0171 25.9033C45.8331 26.3293 45.5319 26.6164 44.9661 26.6164C43.9736 26.6164 43.5618 25.7493 43.5618 24.7053C43.5618 23.6541 44.1869 22.8673 44.9808 22.8673C45.4067 22.8673 45.7893 23.1024 45.9579 23.4117H45.9727C45.9727 22.5364 45.9509 21.7864 45.9141 20.9563C46.0388 20.9779 46.2521 20.9932 46.4653 20.9932C46.6786 20.9932 46.8918 20.9779 47.0166 20.9563C46.9796 21.7864 46.9581 22.5364 46.9581 23.4995V23.9774H46.958V23.9773ZM45.2818 26.1604C45.679 26.1604 45.9725 25.7415 45.9725 24.6829C45.9725 23.7712 45.7008 23.3741 45.3187 23.3741C45.01 23.3741 44.6497 23.6903 44.6497 24.8153C44.6497 25.8148 44.9508 26.1604 45.2818 26.1604Z" fill="#2D2732"/>
<path d="M48.7367 24.7416C48.7367 25.536 49.0454 26.1383 49.7215 26.1383C50.0596 26.1383 50.3613 26.0282 50.6261 25.8079L50.7139 25.8735L50.5522 26.2853C50.3096 26.4693 49.9862 26.6164 49.4348 26.6164C48.4793 26.6164 47.6486 26.0427 47.6486 24.7567C47.6486 23.4848 48.3692 22.8672 49.3541 22.8672C50.3096 22.8672 50.8534 23.4772 50.8534 24.4988C50.8534 24.6243 50.8534 24.69 50.8462 24.7413H48.7367V24.7416H48.7367ZM49.8685 24.4112C49.8539 23.6758 49.7068 23.1984 49.3249 23.1984C48.8907 23.1984 48.7513 23.8376 48.7367 24.4112H49.8685Z" fill="#2D2732"/>
<path d="M53.7786 23.4847C53.7786 22.6615 53.764 22.0956 53.7195 21.4487C53.8812 21.4628 54.0798 21.4851 54.3224 21.4851C54.6458 21.4851 55.0061 21.4487 55.6529 21.4487C57.329 21.4487 58.4833 21.9855 58.4833 23.8373C58.4833 25.4549 57.3214 26.5199 55.9394 26.5199C55.2047 26.5199 54.705 26.4836 54.3224 26.4836C54.0799 26.4836 53.8813 26.5059 53.7196 26.5199C53.7641 25.8732 53.7787 25.3072 53.7787 24.4841V23.4847H53.7786ZM54.8667 24.6464C54.8667 25.043 54.8667 25.9401 54.8738 26.0795C55.0208 26.0865 55.2195 26.1017 55.5206 26.1017C56.6232 26.1017 57.3215 25.3519 57.3215 23.8227C57.3215 22.617 56.653 21.8671 55.6382 21.8671C55.2855 21.8671 55.1016 21.8824 54.8738 21.9046C54.8667 22.044 54.8667 22.9404 54.8667 23.3376V24.6464Z" fill="#2D2732"/>
<path d="M60.1736 24.7416C60.1736 25.536 60.4822 26.1383 61.1584 26.1383C61.4964 26.1383 61.7982 26.0282 62.0629 25.8079L62.1506 25.8735L61.9889 26.2853C61.7465 26.4693 61.4231 26.6164 60.8716 26.6164C59.9161 26.6164 59.0853 26.0427 59.0853 24.7567C59.0853 23.4848 59.806 22.8672 60.7908 22.8672C61.7465 22.8672 62.2901 23.4772 62.2901 24.4988C62.2901 24.6243 62.2901 24.69 62.2831 24.7413H60.1735V24.7416H60.1736ZM61.3054 24.4112C61.2907 23.6758 61.1437 23.1984 60.7617 23.1984C60.3275 23.1984 60.188 23.8376 60.1734 24.4112H61.3054Z" fill="#2D2732"/>
<path d="M63.0256 25.5945C63.1428 25.9031 63.3781 26.1966 63.8926 26.1966C64.2306 26.1966 64.4293 25.984 64.4293 25.7784C64.4293 25.1093 62.7385 25.3296 62.7385 24.0507C62.7385 23.2199 63.4151 22.8672 64.0251 22.8672C64.4294 22.8672 64.7311 22.985 65.0615 23.2123C64.9737 23.4039 64.9145 23.6466 64.8851 23.8597H64.6794C64.6278 23.6248 64.4146 23.2423 63.9517 23.2423C63.6577 23.2423 63.4297 23.4116 63.4297 23.6682C63.4297 24.3819 65.1646 24.0725 65.1646 25.3743C65.1646 26.219 64.4733 26.6164 63.7457 26.6164C63.312 26.6164 62.9371 26.4394 62.7314 26.3C62.79 26.0651 62.8271 25.8302 62.8417 25.5947H63.0256V25.5945H63.0256Z" fill="#2D2732"/>
<path d="M66.3991 20.9929C66.7225 20.9929 66.9797 21.2496 66.9797 21.573C66.9797 21.897 66.7225 22.1541 66.3991 22.1541C66.0757 22.1541 65.8186 21.897 65.8186 21.573C65.8185 21.2496 66.0757 20.9929 66.3991 20.9929ZM65.9065 24.5949C65.9065 23.9991 65.8917 23.4771 65.8479 22.9627C65.9802 22.9773 66.1713 22.9997 66.3991 22.9997C66.627 22.9997 66.8255 22.9774 66.9505 22.9627C66.9065 23.4771 66.8919 23.9991 66.8919 24.5949V24.889C66.8919 25.4843 66.9065 26.0057 66.9505 26.5201C66.8255 26.5061 66.627 26.4837 66.3991 26.4837C66.1713 26.4837 65.9802 26.506 65.8479 26.5201C65.8917 26.0057 65.9065 25.4843 65.9065 24.889V24.5949Z" fill="#2D2732"/>
<path d="M70.3319 23.2276L70.3096 23.2422C70.5522 23.4185 70.7062 23.6903 70.7062 24.0582C70.7062 24.7859 70.1257 25.278 69.2802 25.278C69.1776 25.278 69.0745 25.271 68.9498 25.271C68.8319 25.271 68.7364 25.3958 68.7364 25.5359C68.7364 25.7708 68.9128 25.9178 69.3024 25.9248L69.846 25.9324C70.6551 25.94 71.0447 26.2341 71.0447 26.9025C71.0447 28.0712 69.9715 28.4756 69.1037 28.4756C68.1922 28.4756 67.6409 28.0712 67.6409 27.4983C67.6409 27.0349 67.935 26.7484 68.3614 26.5866V26.5714C68.1113 26.4612 67.9425 26.2772 67.9425 26.0056C67.9425 25.6821 68.2219 25.3363 68.6263 25.2263V25.2122C68.3322 25.1384 68.0967 25.0059 67.935 24.815C67.7733 24.624 67.6854 24.3662 67.6854 24.0505C67.6854 23.3007 68.3176 22.8669 69.2438 22.8669C69.4202 22.8669 69.6111 22.8887 69.7876 22.8963C69.9124 22.9039 70.0446 22.9109 70.1993 22.9109C70.4419 22.9109 70.7139 22.9039 70.9787 22.9039C70.9711 22.9625 70.9639 23.0211 70.9639 23.0803C70.9639 23.1388 70.9711 23.198 70.9787 23.2567L70.3319 23.2276ZM69.1262 26.6163C68.8691 26.6163 68.7073 26.6386 68.5967 26.69C68.4794 26.7486 68.3101 26.9835 68.3101 27.3292C68.3101 27.8876 68.7513 28.1746 69.2733 28.1746C69.8392 28.1746 70.1921 27.7703 70.1921 27.2994C70.1919 26.7263 69.7876 26.6163 69.1262 26.6163ZM68.7144 24.1391C68.7144 24.7783 68.9716 25.0062 69.1996 25.0062C69.523 25.0062 69.6776 24.7345 69.6776 24.0723C69.6776 23.4117 69.479 23.169 69.2142 23.169C68.8761 23.169 68.7144 23.4923 68.7144 24.1391Z" fill="#2D2732"/>
<path d="M72.5152 23.514H72.5298C72.8015 23.1175 73.1766 22.8672 73.6393 22.8672C74.3746 22.8672 74.7865 23.2791 74.7865 24.22C74.7865 24.7198 74.7567 25.0725 74.7567 25.4551C74.7567 25.7632 74.779 26.1457 74.7936 26.5201C74.6689 26.4985 74.4556 26.4838 74.2424 26.4838C74.0291 26.4838 73.8159 26.4985 73.691 26.5201C73.7574 25.9917 73.7719 25.2857 73.7719 24.411C73.7719 23.8005 73.5516 23.5139 73.169 23.5139C72.7281 23.5139 72.5298 23.9182 72.5298 24.595V24.8891C72.5298 25.4843 72.5446 26.0057 72.5884 26.5201C72.4637 26.5061 72.265 26.4838 72.0372 26.4838C71.8093 26.4838 71.6183 26.5061 71.4858 26.5201C71.5298 26.0057 71.5444 25.4843 71.5444 24.8891V24.595C71.5444 23.9991 71.5298 23.4771 71.4858 22.9627C71.6623 22.9773 71.8317 22.9996 72.0078 22.9996C72.1842 22.9996 72.3537 22.9773 72.5446 22.9627L72.5152 23.514Z" fill="#2D2732"/>
<path d="M77.9097 23.4847C77.9097 22.6615 77.8952 22.0956 77.8507 21.4487C78.0128 21.4628 78.211 21.4851 78.4536 21.4851C78.696 21.4851 78.8946 21.4628 79.0564 21.4487C79.0125 22.0956 78.9979 22.6615 78.9979 23.4847V24.4841C78.9979 25.3073 79.0125 25.8732 79.0564 26.5199C78.8946 26.5059 78.696 26.4836 78.4536 26.4836C78.211 26.4836 78.0128 26.5059 77.8507 26.5199C77.8952 25.8732 77.9097 25.3072 77.9097 24.4841V23.4847Z" fill="#2D2732"/>
<path d="M81.0928 23.514H81.1074C81.3791 23.1175 81.7542 22.8672 82.2169 22.8672C82.9523 22.8672 83.3642 23.2791 83.3642 24.22C83.3642 24.7198 83.3343 25.0725 83.3343 25.4551C83.3343 25.7632 83.3566 26.1457 83.3712 26.5201C83.2465 26.4985 83.0332 26.4838 82.82 26.4838C82.6067 26.4838 82.3936 26.4985 82.2687 26.5201C82.3351 25.9917 82.3497 25.2857 82.3497 24.411C82.3497 23.8005 82.1292 23.5139 81.7468 23.5139C81.3057 23.5139 81.1075 23.9182 81.1075 24.595V24.8891C81.1075 25.4843 81.1221 26.0057 81.166 26.5201C81.0413 26.5061 80.8426 26.4838 80.6148 26.4838C80.3869 26.4838 80.1959 26.5061 80.0636 26.5201C80.1074 26.0057 80.122 25.4843 80.122 24.8891V24.595C80.122 23.9991 80.1074 23.4771 80.0636 22.9627C80.2399 22.9773 80.4093 22.9996 80.5855 22.9996C80.7618 22.9996 80.9313 22.9773 81.1221 22.9627L81.0928 23.514Z" fill="#2D2732"/>
<path d="M84.2677 25.5945C84.385 25.9031 84.6204 26.1966 85.1347 26.1966C85.4728 26.1966 85.6715 25.984 85.6715 25.7784C85.6715 25.1093 83.9807 25.3296 83.9807 24.0507C83.9807 23.2199 84.6573 22.8672 85.2673 22.8672C85.6716 22.8672 85.9732 22.985 86.3038 23.2123C86.2159 23.4039 86.1567 23.6466 86.1273 23.8597H85.9216C85.8701 23.6248 85.6567 23.2423 85.1939 23.2423C84.8998 23.2423 84.6719 23.4116 84.6719 23.6682C84.6719 24.3819 86.4067 24.0725 86.4067 25.3743C86.4067 26.219 85.7155 26.6164 84.9878 26.6164C84.5542 26.6164 84.1792 26.4394 83.9738 26.3C84.0323 26.0651 84.0692 25.8302 84.0838 25.5947H84.2678V25.5945H84.2677Z" fill="#2D2732"/>
<path d="M88.9429 22.9996C88.9281 23.0727 88.9205 23.1315 88.9205 23.1982C88.9205 23.2567 88.9281 23.323 88.9429 23.3816L88.296 23.3669C88.2667 23.8081 88.2444 24.609 88.2444 25.0062C88.2444 26.028 88.3176 26.1966 88.6556 26.1966C88.8395 26.1966 88.9058 26.175 88.9943 26.1234V26.4251C88.8027 26.5423 88.4723 26.6162 88.1929 26.6162C87.5829 26.6162 87.2594 26.219 87.2594 25.4766C87.2594 24.9109 87.3104 23.9914 87.3104 23.3739L86.796 23.3816C86.8106 23.323 86.8183 23.2567 86.8183 23.1982C86.8183 23.1313 86.8107 23.0727 86.796 22.9996L87.3104 23.0213C87.3104 22.7131 87.3033 22.4922 87.2812 22.1172C87.6192 21.9778 87.9578 21.8238 88.2883 21.6614L88.3621 21.713C88.325 22.0289 88.296 22.573 88.296 23.0143L88.9429 22.9996Z" fill="#2D2732"/>
<path d="M90.5007 23.8597L90.5155 23.8743C90.7726 23.1983 91.1329 22.8889 91.625 22.8889C91.6695 22.8889 91.7059 22.8965 91.7429 22.8965C91.7135 23.0435 91.6989 23.1982 91.6989 23.4257C91.6989 23.5731 91.6989 23.7419 91.7059 23.9107L91.6398 23.97C91.5441 23.9107 91.4194 23.8675 91.2652 23.8675C90.8241 23.8675 90.5517 24.2049 90.5517 24.5952V24.8893C90.5517 25.4845 90.5669 26.0059 90.6107 26.5203C90.486 26.5063 90.2874 26.484 90.0595 26.484C89.8317 26.484 89.6406 26.5063 89.5083 26.5203C89.5523 26.0059 89.5669 25.4845 89.5669 24.8893V24.5952C89.5669 23.9993 89.5523 23.4773 89.5083 22.9629C89.677 22.9776 89.8463 22.9999 90.0157 22.9999C90.1843 22.9999 90.3537 22.9776 90.5224 22.9629L90.5007 23.8597Z" fill="#2D2732"/>
<path d="M94.5953 25.9693H94.58C94.3082 26.3659 93.9333 26.6162 93.4705 26.6162C92.7353 26.6162 92.3239 26.2043 92.3239 25.2634C92.3239 24.7636 92.3531 24.411 92.3531 24.0291C92.3531 23.7197 92.3308 23.3377 92.3162 22.9628C92.441 22.9851 92.6542 22.9997 92.8675 22.9997C93.0806 22.9997 93.2939 22.9851 93.4187 22.9628C93.3525 23.4923 93.3379 24.1977 93.3379 25.0724C93.3379 25.6823 93.558 25.9693 93.9407 25.9693C94.3818 25.9693 94.5799 25.5651 94.5799 24.8891V24.595C94.5799 23.9991 94.5652 23.4771 94.5214 22.9628C94.6462 22.9774 94.8448 22.9997 95.0726 22.9997C95.3005 22.9997 95.4916 22.9774 95.6239 22.9628C95.58 23.4771 95.5653 23.9991 95.5653 24.595V24.8891C95.5653 25.4843 95.58 26.0058 95.6239 26.5201C95.4474 26.5062 95.2782 26.4838 95.1019 26.4838C94.9254 26.4838 94.7568 26.5061 94.5653 26.5201L94.5953 25.9693Z" fill="#2D2732"/>
<path d="M99.0785 23.9774C99.0053 23.5509 98.7844 23.2423 98.3362 23.2423C97.7625 23.2423 97.4538 23.8081 97.4538 24.7567C97.4538 25.646 97.8364 26.1383 98.5493 26.1383C98.8507 26.1383 99.1741 25.9696 99.3064 25.7926L99.3948 25.8664C99.3286 26.0058 99.277 26.1534 99.233 26.2999C99.0198 26.4617 98.6887 26.6162 98.2405 26.6162C96.8069 26.6162 96.3295 25.646 96.3295 24.749C96.3295 23.668 97.0935 22.8672 98.2698 22.8672C98.8134 22.8672 99.1814 23.0073 99.5341 23.2123C99.4163 23.4039 99.3062 23.7197 99.2547 23.9774L99.0785 23.9774Z" fill="#2D2732"/>
<path d="M100.71 20.9929C101.034 20.9929 101.291 21.2496 101.291 21.573C101.291 21.897 101.034 22.1541 100.71 22.1541C100.387 22.1541 100.13 21.897 100.13 21.573C100.13 21.2496 100.387 20.9929 100.71 20.9929ZM100.218 24.5949C100.218 23.9991 100.203 23.4771 100.159 22.9627C100.291 22.9773 100.482 22.9997 100.71 22.9997C100.938 22.9997 101.137 22.9774 101.262 22.9627C101.218 23.4771 101.203 23.9991 101.203 24.5949V24.889C101.203 25.4843 101.218 26.0057 101.262 26.5201C101.137 26.5061 100.938 26.4837 100.71 26.4837C100.482 26.4837 100.291 26.506 100.159 26.5201C100.203 26.0057 100.218 25.4843 100.218 24.889V24.5949Z" fill="#2D2732"/>
<path d="M103.776 22.8672C104.908 22.8672 105.576 23.5657 105.576 24.6682C105.576 25.8663 104.834 26.6163 103.776 26.6163C102.901 26.6163 101.975 26.1311 101.975 24.8301C101.975 23.514 102.849 22.8672 103.776 22.8672ZM103.79 23.1983C103.342 23.1983 103.062 23.7274 103.062 24.8375C103.062 25.6607 103.239 26.2852 103.783 26.2852C104.238 26.2852 104.488 25.6977 104.488 24.5575C104.489 23.7127 104.275 23.1983 103.79 23.1983Z" fill="#2D2732"/>
<path d="M107.238 23.514H107.253C107.524 23.1175 107.899 22.8672 108.362 22.8672C109.097 22.8672 109.509 23.2791 109.509 24.22C109.509 24.7198 109.479 25.0725 109.479 25.4551C109.479 25.7632 109.502 26.1457 109.516 26.5201C109.392 26.4985 109.178 26.4838 108.965 26.4838C108.752 26.4838 108.539 26.4985 108.414 26.5201C108.48 25.9917 108.495 25.2857 108.495 24.411C108.495 23.8005 108.274 23.5139 107.892 23.5139C107.451 23.5139 107.253 23.9182 107.253 24.595V24.8891C107.253 25.4843 107.267 26.0057 107.311 26.5201C107.186 26.5061 106.988 26.4838 106.76 26.4838C106.532 26.4838 106.341 26.5061 106.209 26.5201C106.253 26.0057 106.267 25.4843 106.267 24.8891V24.595C106.267 23.9991 106.253 23.4771 106.209 22.9627C106.385 22.9773 106.554 22.9996 106.731 22.9996C106.907 22.9996 107.076 22.9773 107.267 22.9627L107.238 23.514Z" fill="#2D2732"/>
<path d="M110.332 23.3818C110.729 23.0507 111.244 22.8672 111.707 22.8672C112.486 22.8672 113.052 23.1982 113.052 24.0654C113.052 24.69 113.029 25.2048 113.029 25.734C113.029 26.1967 113.162 26.2412 113.464 26.2412V26.4177C113.184 26.5647 113.015 26.6163 112.787 26.6163C112.427 26.6163 112.206 26.41 112.089 26.0798C111.861 26.3884 111.582 26.6163 111.133 26.6163C110.391 26.6163 110.082 26.1235 110.082 25.6531C110.082 25.0132 110.508 24.7414 111.17 24.5797C111.993 24.3818 112.067 24.3227 112.067 24.0584C112.067 23.7058 111.802 23.4186 111.361 23.4186C111.023 23.4186 110.626 23.6166 110.479 23.8229H110.428L110.332 23.3818ZM112.081 24.6092C111.663 24.8447 111.111 24.8083 111.111 25.5501C111.111 25.9109 111.273 26.109 111.53 26.109C111.854 26.109 112.074 25.8594 112.074 25.3813C112.074 24.9547 112.081 24.7784 112.081 24.6092Z" fill="#2D2732"/>
<path d="M114.11 23.4993C114.11 22.5361 114.088 21.7863 114.051 20.9562C114.176 20.9778 114.389 20.9931 114.602 20.9931C114.816 20.9931 115.029 20.9778 115.154 20.9562C115.117 21.7863 115.095 22.5363 115.095 23.4993V23.9774C115.095 24.9401 115.117 25.6899 115.154 26.5202C115.029 26.4986 114.816 26.4838 114.602 26.4838C114.389 26.4838 114.176 26.4986 114.051 26.5202C114.088 25.6901 114.11 24.9401 114.11 23.9774V23.4993Z" fill="#2D2732"/>
</svg>
